<?xml version="1.0"?>
<svg xmlns="http://www.w3.org/2000/svg" viewBox="0 0 512 512.00033" width="512px" height="512px"><g><path d="m316 80.003906c5.519531 0 10-4.480468 10-10 0-5.519531-4.480469-10-10-10-5.523438 0-10 4.480469-10 10 0 5.519532 4.476562 10 10 10zm0 0" data-original="#000000" class="active-path" data-old_color="#956262" fill="#5E55D5"/><path d="m236.636719 1.074219c-74.925781 8.296875-136.976563 67.539062-148.519531 141.742187-8.988282 57.746094 11.460937 115.265625 54.703124 153.855469 14.730469 13.144531 23.179688 32.042969 23.179688 51.847656v47.480469c0 24.148438 17.203125 44.347656 40 48.996094v17.003906c0 13.351562 5.203125 25.90625 14.648438 35.351562 9.445312 9.445313 22 14.648438 35.351562 14.648438 27.570312 0 50-22.429688 50-50v-17.003906c22.792969-4.648438 40-24.847656 40-48.996094 0-33.191406 0-13.53125 0-47.480469 0-19.863281 8.34375-38.667969 22.890625-51.589843 36.292969-32.242188 57.105469-78.503907 57.105469-126.925782 0-100.589844-87.101563-180.246094-189.359375-168.929687zm19.363281 490.925781c-8.007812 0-15.542969-3.121094-21.210938-8.789062-5.667968-5.671876-8.789062-13.203126-8.789062-21.210938v-16h60v16c0 16.542969-13.460938 30-30 30zm40-66h-80c-16.542969 0-30-13.457031-30-30v-16h140v16c0 16.542969-13.460938 30-30 30zm59.605469-144.023438c-18.816407 16.714844-29.605469 40.972657-29.605469 66.542969v11.480469h-140v-11.480469c0-25.5-10.886719-49.835937-29.863281-66.769531-38.15625-34.054688-56.195313-84.84375-48.253907-135.859375 10.128907-65.113281 65.203126-117.65625 130.957032-124.9375 91.773437-10.15625 167.15625 61.773437 167.15625 149.050781 0 42.710938-18.367188 83.523438-50.390625 111.972656zm0 0" data-original="#000000" class="active-path" data-old_color="#956262" fill="#5E55D5"/><path d="m201.003906 74.699219c22.9375-13.261719 49.980469-17.757813 76.144532-12.660157 5.417968 1.054688 10.667968-2.484374 11.726562-7.90625 1.054688-5.417968-2.484375-10.667968-7.90625-11.726562-30.902344-6.015625-62.859375-.699219-89.976562 14.980469-4.777344 2.765625-6.414063 8.878906-3.648438 13.660156 2.761719 4.78125 8.878906 6.417969 13.660156 3.652344zm0 0" data-original="#000000" class="active-path" data-old_color="#956262" fill="#5E55D5"/><path d="m306 160.003906c-22.058594 0-40 17.941406-40 40v20h-20s0-17.742187 0-20c0-22.058594-17.945312-40-40-40-22.058594 0-40 17.941406-40 40 0 22.054688 17.941406 39.996094 40 39.996094h20v90c0 5.523438 4.476562 10 10 10 5.519531 0 10-4.476562 10-10v-90h20v90c0 5.523438 4.476562 10 10 10 5.519531 0 10-4.476562 10-10v-90h20c22.054688 0 40-17.941406 40-39.996094 0-22.058594-17.945312-40-40-40zm-120 40c0-11.03125 8.972656-20 20-20s20 8.96875 20 20c0 2.160156-.34375 4.277344-1.03125 6.328125-2.714844 8.175781-10.335938 13.671875-18.96875 13.671875-11.027344 0-20-8.972656-20-20zm120 20c-8.632812 0-16.257812-5.496094-18.96875-13.671875-.003906-.011719-.007812-.019531-.011719-.03125-.679687-2.019531-1.023437-4.136719-1.023437-6.296875 0-11.03125 8.972656-20 20-20s20 8.96875 20 20c0 11.027344-8.96875 20-19.996094 20zm0 0" data-original="#000000" class="active-path" data-old_color="#956262" fill="#5E55D5"/><path d="m0 170.003906c0 5.519532 4.476562 10 10 10h46c5.523438 0 10-4.480468 10-10 0-5.523437-4.476562-10-10-10h-46c-5.523438 0-10 4.476563-10 10zm0 0" data-original="#000000" class="active-path" data-old_color="#956262" fill="#5E55D5"/><path d="m501.996094 160.003906h-46c-5.519532 0-10 4.476563-10 10 0 5.519532 4.480468 10 10 10h46c5.523437 0 10-4.480468 10-10 0-5.523437-4.476563-10-10-10zm0 0" data-original="#000000" class="active-path" data-old_color="#956262" fill="#5E55D5"/><path d="m77.789062 261.339844-34.640624 20c-4.78125 2.765625-6.421876 8.878906-3.660157 13.660156 2.773438 4.800781 8.894531 6.414062 13.660157 3.660156l34.640624-20c4.785157-2.761718 6.421876-8.875 3.660157-13.660156-2.761719-4.78125-8.878907-6.421875-13.660157-3.660156zm0 0" data-original="#000000" class="active-path" data-old_color="#956262" fill="#5E55D5"/><path d="m472.507812 45.003906c-2.761718-4.78125-8.878906-6.421875-13.660156-3.660156l-34.640625 20c-4.785156 2.761719-6.421875 8.875-3.660156 13.660156 2.769531 4.796875 8.890625 6.414063 13.660156 3.660156l34.640625-20c4.78125-2.761718 6.421875-8.878906 3.660156-13.660156zm0 0" data-original="#000000" class="active-path" data-old_color="#956262" fill="#5E55D5"/><path d="m87.789062 61.34375-34.640624-20c-4.78125-2.761719-10.898438-1.125-13.660157 3.660156-2.761719 4.78125-1.121093 10.898438 3.660157 13.660156l34.640624 20c4.773438 2.753907 10.894532 1.132813 13.660157-3.660156 2.761719-4.785156 1.125-10.898437-3.660157-13.660156zm0 0" data-original="#000000" class="active-path" data-old_color="#956262" fill="#5E55D5"/><path d="m420.546875 265c-2.761719 4.785156-1.125 10.898438 3.660156 13.660156l34.640625 20c4.773438 2.757813 10.890625 1.132813 13.660156-3.660156 2.761719-4.78125 1.121094-10.894531-3.660156-13.660156l-34.640625-20c-4.785156-2.757813-10.898437-1.121094-13.660156 3.660156zm0 0" data-original="#000000" class="active-path" data-old_color="#956262" fill="#5E55D5"/></g> </svg>
