<?xml version="1.0"?>
<svg xmlns="http://www.w3.org/2000/svg" viewBox="0 0 512 512.001" width="512px" height="512px"><g><path d="m366 250.269531c-5.519531-.019531-10.007812 4.449219-10.019531 9.96875-.019531 5.53125 4.449219 10.011719 9.96875 10.03125 5.519531.011719 10.011719-4.460937 10.03125-9.980469.011719-5.519531-4.460938-10.007812-9.980469-10.019531zm0 0" data-original="#000000" class="active-path" data-old_color="#673232" fill="#5E55D5"/><path d="m126.019531 239.679688c-.019531 0-.035156 0-.054687 0-16.511719 0-29.96875 13.417968-30.015625 29.933593-.011719 5.523438 4.453125 10.011719 9.972656 10.027344h.027344c5.511719 0 9.988281-4.460937 10-9.972656.015625-5.511719 4.507812-9.988281 10.003906-9.988281h.019531c5.515625.015624 9.992188 4.511718 9.976563 10.023437-.011719 5.523437 4.453125 10.011719 9.972656 10.027344h.027344c5.511719 0 9.984375-4.460938 10-9.972657.046875-16.539062-13.378907-30.03125-29.929688-30.078124zm0 0" data-original="#000000" class="active-path" data-old_color="#673232" fill="#5E55D5"/><path d="m296.925781 120.710938h.003907c5.488281.007812 9.984374 4.441406 9.96875 10.039062 0 4.617188-3.191407 8.597656-7.660157 9.667969-.707031-.15625-3.753906-.144531-4.496093.03125-3.128907-.691407-5.785157-2.832031-7.0625-5.871094-2.136719-5.09375-8-7.484375-13.089844-5.351563-5.09375 2.140626-7.488282 8-5.351563 13.09375 3.355469 8 9.894531 13.957032 17.789063 16.703126l-.027344 11.121093c-.011719 5.523438 4.453125 10.011719 9.976562 10.027344h.023438c5.511719 0 9.957031-4.460937 9.972656-9.976563l.027344-11.261718c12.042969-4.316406 19.902344-15.675782 19.902344-28.15625.042968-16.578125-13.339844-30.03125-29.921875-30.066406h-.003907c-5.53125-.011719-9.996093-4.492188-9.976562-10.023438.015625-5.519531 4.476562-9.976562 10-9.976562h.027344c4.027344.011718 7.644531 2.417968 9.207031 6.136718 2.140625 5.089844 8 7.480469 13.09375 5.339844 5.089844-2.140625 7.484375-8 5.34375-13.09375-3.34375-7.945312-9.921875-13.875-17.738281-16.644531l-.03125-12.304688c-.015625-5.511719-4.390625-9.972656-9.902344-9.972656-.007812 0-.015625 0-.023438 0-5.523437.011719-9.988281 4.5-9.976562 10.023437l.03125 12.191407c-11.414062 4.015625-19.996094 14.972656-20.03125 28.238281-.058594 16.410156 13.179688 30.046875 29.925781 30.085938zm0 0" data-original="#000000" class="active-path" data-old_color="#673232" fill="#5E55D5"/><path d="m502 223c-5.523438 0-10 4.476562-10 10 0 25.683594-23.808594 45.523438-47.800781 49.328125-6.574219-41.296875-31.339844-76.796875-64.117188-100.875 16.742188-19.699219 26.195313-44.972656 26.257813-71.019531.070312-29.390625-11.300782-57.066406-32.023438-77.9375-20.738281-20.886719-48.335937-32.4257815-77.710937-32.496094-.089844 0-.175781 0-.265625 0-60.53125 0-109.855469 49.246094-110 109.894531-.03125 12.359375 1.945312 24.367188 5.882812 35.84375-12.089844 2.667969-23.835937 6.25-35.113281 10.710938-15.851563-22.984375-55.273437-36.820313-80.792969-36.890625-.007812 0-.019531 0-.027344 0-3.078124 0-5.988281 1.421875-7.882812 3.851562-1.902344 2.4375-2.570312 5.617188-1.808594 8.613282l18.460938 72.652343c-11.554688 12.898438-21.871094 29.992188-29.175782 48.324219h-25.875c-16.683593.011719-29.960937 12.851562-30.007812 29.421875v39.972656c-.0429688 16.554688 13.023438 29.558594 29.78125 29.605469h25.894531c10.488281 26.214844 28.441407 50.480469 50.324219 67.964844v82.035156c0 5.523438 4.480469 10 10 10h39.394531.082031c16.433594 0 30.480469-13.496094 30.523438-30.191406v-23.273438c19.277344 4.894532 39.226562 7.394532 59.488281 7.445313h.582031c13.222657 0 26.0625-1.023438 38.929688-3.097657v19.191407c-.042969 16.453125 13.589844 29.878906 30.421875 29.925781h40.578125c5.523438 0 10-4.476562 10-10v-67.679688c49.300781-29.628906 79.757812-79.277343 79.878906-130.855468.003906-.382813-.015625-.769532-.015625-1.152344 34.609375-4.71875 66.136719-33.5 66.136719-69.3125 0-5.523438-4.476562-10-10-10zm-205.65625-203h.214844c24.023437.058594 46.597656 9.5 63.566406 26.589844 16.960938 17.082031 26.273438 39.738281 26.214844 63.796875-.121094 50.34375-41.050782 89.785156-90.003906 89.785156-.070313 0-.140626 0-.210938 0-48.761719-.125-89.914062-39.777344-89.785156-90.230469.117187-49.640625 40.46875-89.941406 90.003906-89.941406zm54.78125 399.828125c-3.164062 1.765625-5.125 5.105469-5.125 8.730469v63.441406h-30.550781c-5.679688-.015625-10.464844-4.535156-10.449219-9.898438 0-24.242187 0-30.382812 0-51.25 0-5.523437-4.476562-10-10-10s-10 4.476563-10 10v11.738282c-12.886719 2.265625-25.699219 3.390625-38.929688 3.390625-.179687 0-.359374 0-.535156 0-20.347656-.050781-40.339844-2.792969-59.535156-8.148438v-12.53125c0-5.523437-4.476562-10-10-10s-10 4.476563-10 10v56.480469c-.011719 5.539062-5.035156 10.21875-10.554688 10.21875-.007812 0-.015624 0-.023437 0h-29.421875v-76.949219c0-3.160156-1.492188-6.132812-4.027344-8.023437-22.132812-16.480469-40.792968-42.019532-49.914062-68.304688-1.398438-4.023437-5.1875-6.722656-9.449219-6.722656h-32.800781c-5.605469-.015625-9.824219-4.121094-9.808594-9.578125v-39.976563c.015625-5.503906 4.394531-9.445312 9.949219-9.445312h.03125 32.832031c4.238281 0 8.019531-2.675781 9.429688-6.675781 7.125-20.222657 18.410156-39.085938 30.960937-51.753907 2.472656-2.496093 3.453125-6.101562 2.589844-9.503906l-16.308594-64.195312c22.527344 4.105468 48.464844 17.28125 53.695313 31.726562 1.96875 5.4375 8.148437 8.09375 13.464843 5.730469 13.871094-6.171875 28.636719-10.835937 43.984375-13.917969 8.09375 14.257813 19.269532 26.539063 32.753906 35.960938-13.730468.882812-27.210937 3.257812-40.179687 7.101562-5.296875 1.566406-8.320313 7.132813-6.75 12.425782 1.566406 5.296874 7.132813 8.316406 12.425781 6.75 14.945313-4.425782 30.652344-6.667969 46.703125-6.667969h.496094c29.640625.066406 61.164063 8.078125 85.671875 25.128906 4.546875 3.164063 10.777344 2.019531 13.921875-2.496094 3.152344-4.535156 2.035156-10.765625-2.5-13.921875-6.304687-4.386718-13.085937-8.308594-20.285156-11.753906 15.546875-3.851562 30.097656-11.074219 42.679687-21.289062 37.464844 26.347656 60.410156 67.03125 60.316406 107.769531-.113281 46.117187-28.757812 90.726562-74.757812 116.410156zm0 0" data-original="#000000" class="active-path" data-old_color="#673232" fill="#5E55D5"/></g> </svg>
