<?xml version="1.0"?>
<svg xmlns="http://www.w3.org/2000/svg" viewBox="-43 0 512 512" width="512px" height="512px" class=""><g><path d="m330 292c-5.519531 0-10 4.480469-10 10s4.480469 10 10 10 10-4.480469 10-10-4.480469-10-10-10zm0 0" data-original="#000000" class="active-path" data-old_color="##5E55D" fill="#5E55D5"/><path d="m394.964844 425.367188c-3.65625-5.488282-8.933594-9.515626-14.964844-11.644532v-131.722656c0-13.035156-8.359375-24.152344-20-28.28125v-111.71875c0-16.542969-13.457031-30-30-30-18.207031 0-134.574219 0-160 0-3.507812 0-6.871094.609375-10 1.71875v-83.71875c0-16.542969-13.457031-30-30-30h-100c-16.542969 0-30 13.457031-30 30s13.457031 30 30 30h70v318.746094c-24.1875 11.484375-40 36.0625-40 63.253906 0 38.597656 31.402344 70 70 70 27.191406 0 51.769531-15.8125 63.253906-40h160.691406l17.75 26.632812c5.578126 8.371094 14.914063 13.367188 24.976563 13.367188 23.933594 0 38.230469-26.730469 24.957031-46.636719zm-64.964844-93.367188c-5.523438 0-10 4.476562-10 10v70h-126.746094c-6.921875-14.640625-18.613281-26.332031-33.253906-33.253906v-106.746094h60v70c0 3.6875 2.03125 7.074219 5.28125 8.816406 3.25 1.742188 7.199219 1.546875 10.265625-.496094l24.453125-16.300781 24.453125 16.300781c3.070313 2.046876 7.019531 2.234376 10.265625.496094 3.25-1.742187 5.28125-5.128906 5.28125-8.816406v-70h50c5.515625 0 10 4.484375 10 10v130h-20v-70c0-5.523438-4.476562-10-10-10zm-90-60h40v51.3125l-14.453125-9.632812c-1.679687-1.121094-3.613281-1.679688-5.546875-1.679688s-3.867188.558594-5.546875 1.679688l-14.453125 9.632812zm-10-140h40v51.3125l-14.453125-9.632812c-1.679687-1.121094-3.613281-1.679688-5.546875-1.679688s-3.867188.558594-5.546875 1.679688l-14.453125 9.632812zm-60 0h40v70c0 3.6875 2.03125 7.074219 5.28125 8.816406 3.253906 1.742188 7.199219 1.546875 10.265625-.496094l24.453125-16.300781 24.453125 16.300781c3.070313 2.046876 7.019531 2.234376 10.265625.496094 3.25-1.742187 5.28125-5.128906 5.28125-8.816406v-70h40c5.515625 0 10 4.484375 10 10v110c-85.613281 0-92.976562 0-180 0v-110c0-5.515625 4.488281-10 10-10zm-140-92c-5.515625 0-10-4.484375-10-10s4.484375-10 10-10h100c5.515625 0 10 4.484375 10 10v342.722656c-3.296875-.472656-6.632812-.722656-10-.722656s-6.703125.25-10 .722656v-322.722656c0-5.523438-4.476562-10-10-10zm100 452c-27.570312 0-50-22.429688-50-50 0-27.273438 22.0625-50 50-50 27.929688 0 50 22.75 50 50 0 27.9375-22.726562 50-50 50zm266.671875 0c-3.359375 0-6.472656-1.664062-8.332031-4.457031l-20.71875-31.089844c-1.855469-2.78125-4.976563-4.453125-8.320313-4.453125h-160.023437c.472656-3.296875.722656-6.632812.722656-10s-.25-6.703125-.722656-10h170.722656c3.351562 0 6.460938 1.664062 8.320312 4.457031l26.667969 40c4.433594 6.648438-.320312 15.542969-8.316406 15.542969zm0 0" data-original="#000000" class="active-path" data-old_color="##5E55D" fill="#5E55D5"/><path d="m130 412c-16.542969 0-30 13.457031-30 30s13.457031 30 30 30 30-13.457031 30-30-13.457031-30-30-30zm0 40c-5.515625 0-10-4.484375-10-10s4.484375-10 10-10 10 4.484375 10 10-4.484375 10-10 10zm0 0" data-original="#000000" class="active-path" data-old_color="##5E55D" fill="#5E55D5"/></g> </svg>
